G75*
%MOIN*%
%OFA0B0*%
%FSLAX24Y24*%
%IPPOS*%
%LPD*%
%AMOC8*
5,1,8,0,0,1.08239X$1,22.5*
%
%ADD10OC8,0.0680*%
%ADD11C,0.0680*%
%ADD12C,0.0595*%
%ADD13R,0.0820X0.0820*%
%ADD14C,0.0820*%
%ADD15C,0.0600*%
%ADD16C,0.0580*%
%ADD17R,0.0671X0.0671*%
%ADD18OC8,0.0555*%
D10*
X001517Y001190D03*
X002517Y001190D03*
X002517Y002190D03*
X001517Y002190D03*
X001517Y003190D03*
X002517Y003190D03*
X002517Y004190D03*
X001517Y004190D03*
X001517Y005190D03*
X002517Y005190D03*
X002517Y006190D03*
X001517Y006190D03*
X001517Y007190D03*
X002517Y007190D03*
X002517Y008190D03*
X001517Y008190D03*
X001517Y009190D03*
X002517Y009190D03*
X002517Y010190D03*
X001517Y010190D03*
X001517Y011190D03*
X002517Y011190D03*
X002517Y012190D03*
X001517Y012190D03*
X001517Y013190D03*
X002517Y013190D03*
X002517Y014190D03*
X001517Y014190D03*
X001517Y015190D03*
X002517Y015190D03*
X002517Y016190D03*
X001517Y016190D03*
X001517Y017190D03*
X002517Y017190D03*
X002517Y018190D03*
X001517Y018190D03*
X013467Y011190D03*
X014467Y011190D03*
X014467Y010190D03*
X013467Y010190D03*
X013467Y009190D03*
X014467Y009190D03*
D11*
X015257Y006610D02*
X015857Y006610D01*
X015857Y005610D02*
X015257Y005610D01*
X018517Y003740D02*
X018517Y003140D01*
X019517Y003140D02*
X019517Y003740D01*
X020517Y003740D02*
X020517Y003140D01*
X021517Y003140D02*
X021517Y003740D01*
X021517Y001490D02*
X021517Y000890D01*
X020517Y000890D02*
X020517Y001490D01*
X019517Y001490D02*
X019517Y000890D01*
X018517Y000890D02*
X018517Y001490D01*
X017517Y001490D02*
X017517Y000890D01*
X016517Y000890D02*
X016517Y001490D01*
X015517Y001490D02*
X015517Y000890D01*
X014517Y000890D02*
X014517Y001490D01*
X012517Y001490D02*
X012517Y000890D01*
X011517Y000890D02*
X011517Y001490D01*
X010517Y001490D02*
X010517Y000890D01*
X009517Y000890D02*
X009517Y001490D01*
X008517Y001490D02*
X008517Y000890D01*
X007517Y000890D02*
X007517Y001490D01*
X006517Y001490D02*
X006517Y000890D01*
X005517Y000890D02*
X005517Y001490D01*
X023117Y001490D02*
X023117Y000890D01*
X024117Y000890D02*
X024117Y001490D01*
X025117Y001490D02*
X025117Y000890D01*
X026117Y000890D02*
X026117Y001490D01*
X027117Y001490D02*
X027117Y000890D01*
X028117Y000890D02*
X028117Y001490D01*
X029117Y001490D02*
X029117Y000890D01*
X030117Y000890D02*
X030117Y001490D01*
X031117Y001490D02*
X031117Y000890D01*
X032117Y000890D02*
X032117Y001490D01*
X033557Y004610D02*
X033557Y005210D01*
X034557Y005210D02*
X034557Y004610D01*
X025547Y018490D02*
X025547Y019090D01*
X024547Y019090D02*
X024547Y018490D01*
X023547Y018490D02*
X023547Y019090D01*
X023517Y019890D02*
X023517Y020490D01*
X022517Y020490D02*
X022517Y019890D01*
X021517Y019890D02*
X021517Y020490D01*
X019517Y020490D02*
X019517Y019890D01*
X018517Y019890D02*
X018517Y020490D01*
X017517Y020490D02*
X017517Y019890D01*
X016517Y019890D02*
X016517Y020490D01*
X015517Y020490D02*
X015517Y019890D01*
X014517Y019890D02*
X014517Y020490D01*
X013517Y020490D02*
X013517Y019890D01*
X012517Y019890D02*
X012517Y020490D01*
X010517Y020490D02*
X010517Y019890D01*
X009517Y019890D02*
X009517Y020490D01*
X008517Y020490D02*
X008517Y019890D01*
X007517Y019890D02*
X007517Y020490D01*
X006517Y020490D02*
X006517Y019890D01*
X005517Y019890D02*
X005517Y020490D01*
X004517Y020490D02*
X004517Y019890D01*
X003517Y019890D02*
X003517Y020490D01*
X024517Y020490D02*
X024517Y019890D01*
X025517Y019890D02*
X025517Y020490D01*
X026517Y020490D02*
X026517Y019890D01*
X027517Y019890D02*
X027517Y020490D01*
X028517Y020490D02*
X028517Y019890D01*
D12*
X013929Y015221D03*
X013142Y015221D03*
X012354Y015221D03*
X011567Y015221D03*
X010780Y015221D03*
X009992Y015221D03*
X009205Y015221D03*
X008417Y015221D03*
X007630Y015221D03*
X006843Y015221D03*
X006843Y006559D03*
X007630Y006559D03*
X008417Y006559D03*
X009205Y006559D03*
X009992Y006559D03*
X010780Y006559D03*
X011567Y006559D03*
X012354Y006559D03*
X013142Y006559D03*
X013929Y006559D03*
D13*
X030847Y016590D03*
X037017Y017180D03*
X037017Y013940D03*
D14*
X037017Y012940D03*
X037017Y011940D03*
X037017Y010940D03*
X037017Y009940D03*
X037017Y008940D03*
X037017Y007940D03*
X037017Y006940D03*
X033847Y016590D03*
X032847Y016590D03*
X031847Y016590D03*
X037017Y018180D03*
X037017Y019180D03*
X037017Y020180D03*
D15*
X036867Y002830D02*
X036347Y002830D01*
X036347Y001830D02*
X036867Y001830D01*
D16*
X038227Y001846D03*
X038227Y003814D03*
X037411Y004080D03*
X035442Y004080D03*
D17*
X020517Y009600D03*
X021517Y012460D03*
X019507Y013230D03*
X018507Y013600D03*
D18*
X024707Y016720D03*
X024497Y017660D03*
X026797Y017660D03*
X026837Y016730D03*
M02*
