G75*
%MOIN*%
%OFA0B0*%
%FSLAX24Y24*%
%IPPOS*%
%LPD*%
%AMOC8*
5,1,8,0,0,1.08239X$1,22.5*
%
%ADD10C,0.0080*%
%ADD11C,0.0030*%
%ADD12C,0.0040*%
%ADD13C,0.0060*%
%ADD14C,0.0100*%
%ADD15C,0.0050*%
D10*
X006351Y006067D02*
X014421Y006067D01*
X014421Y007051D01*
X006351Y007051D01*
X006351Y006067D01*
X006106Y014505D02*
X005826Y014785D01*
X005756Y014785D01*
X005685Y014715D01*
X005685Y014575D01*
X005756Y014505D01*
X006106Y014505D02*
X006106Y014785D01*
X006036Y014965D02*
X005756Y014965D01*
X005685Y015035D01*
X005685Y015175D01*
X005756Y015245D01*
X006036Y014965D01*
X006106Y015035D01*
X006106Y015175D01*
X006036Y015245D01*
X005756Y015245D01*
X006351Y015713D02*
X014421Y015713D01*
X014421Y014729D01*
X006351Y014729D01*
X006351Y015713D01*
X030347Y016340D02*
X030597Y016090D01*
X031097Y016090D01*
X031347Y016340D01*
X031597Y016090D01*
X032097Y016090D01*
X032347Y016340D01*
X032597Y016090D01*
X033097Y016090D01*
X033347Y016340D01*
X033597Y016090D01*
X034097Y016090D01*
X034347Y016340D01*
X034347Y016840D01*
X034097Y017090D01*
X033597Y017090D01*
X033347Y016840D01*
X033097Y017090D01*
X032597Y017090D01*
X032347Y016840D01*
X032097Y017090D01*
X031597Y017090D01*
X031347Y016840D01*
X031097Y017090D01*
X030597Y017090D01*
X030347Y016840D01*
X030347Y016340D01*
X036517Y016930D02*
X036767Y016680D01*
X037267Y016680D01*
X037517Y016930D01*
X037517Y017430D01*
X037267Y017680D01*
X037517Y017930D01*
X037517Y018430D01*
X037267Y018680D01*
X037517Y018930D01*
X037517Y019430D01*
X037267Y019680D01*
X037517Y019930D01*
X037517Y020430D01*
X037267Y020680D01*
X036767Y020680D01*
X036517Y020430D01*
X036517Y019930D01*
X036767Y019680D01*
X036517Y019430D01*
X036517Y018930D01*
X036767Y018680D01*
X036517Y018430D01*
X036517Y017930D01*
X036767Y017680D01*
X036517Y017430D01*
X036517Y016930D01*
X036767Y014440D02*
X036517Y014190D01*
X036517Y013690D01*
X036767Y013440D01*
X036517Y013190D01*
X036517Y012690D01*
X036767Y012440D01*
X036517Y012190D01*
X036517Y011690D01*
X036767Y011440D01*
X036517Y011190D01*
X036517Y010690D01*
X036767Y010440D01*
X036517Y010190D01*
X036517Y009690D01*
X036767Y009440D01*
X036517Y009190D01*
X036517Y008690D01*
X036767Y008440D01*
X036517Y008190D01*
X036517Y007690D01*
X036767Y007440D01*
X036517Y007190D01*
X036517Y006690D01*
X036767Y006440D01*
X037267Y006440D01*
X037517Y006690D01*
X037517Y007190D01*
X037267Y007440D01*
X037517Y007690D01*
X037517Y008190D01*
X037267Y008440D01*
X037517Y008690D01*
X037517Y009190D01*
X037267Y009440D01*
X037517Y009690D01*
X037517Y010190D01*
X037267Y010440D01*
X037517Y010690D01*
X037517Y011190D01*
X037267Y011440D01*
X037517Y011690D01*
X037517Y012190D01*
X037267Y012440D01*
X037517Y012690D01*
X037517Y013190D01*
X037267Y013440D01*
X037517Y013690D01*
X037517Y014190D01*
X037267Y014440D01*
X036767Y014440D01*
X037037Y004415D02*
X035816Y004415D01*
X035816Y003745D01*
X037037Y003745D01*
X037037Y004415D01*
X037892Y003440D02*
X037892Y002220D01*
X038561Y002220D01*
X038561Y003440D01*
X037892Y003440D01*
D11*
X003213Y002315D02*
X003152Y002377D01*
X003213Y002315D02*
X003337Y002315D01*
X003399Y002377D01*
X003399Y002438D01*
X003337Y002500D01*
X003213Y002500D01*
X003152Y002562D01*
X003152Y002624D01*
X003213Y002685D01*
X003337Y002685D01*
X003399Y002624D01*
X003520Y002685D02*
X003520Y002315D01*
X003643Y002438D01*
X003767Y002315D01*
X003767Y002685D01*
X003888Y002685D02*
X004012Y002685D01*
X003950Y002685D02*
X003950Y002315D01*
X003888Y002315D02*
X004012Y002315D01*
X004257Y002315D02*
X004257Y002685D01*
X004134Y002685D02*
X004381Y002685D01*
X004502Y002624D02*
X004502Y002377D01*
X004564Y002315D01*
X004687Y002315D01*
X004749Y002377D01*
X004870Y002315D02*
X004870Y002685D01*
X004749Y002624D02*
X004687Y002685D01*
X004564Y002685D01*
X004502Y002624D01*
X004870Y002500D02*
X005117Y002500D01*
X005117Y002685D02*
X005117Y002315D01*
X005086Y003075D02*
X004962Y003075D01*
X004900Y003137D01*
X004779Y003137D02*
X004717Y003075D01*
X004594Y003075D01*
X004532Y003137D01*
X004594Y003260D02*
X004717Y003260D01*
X004779Y003198D01*
X004779Y003137D01*
X004962Y003260D02*
X005086Y003260D01*
X005147Y003198D01*
X005147Y003137D01*
X005086Y003075D01*
X004962Y003260D02*
X004900Y003322D01*
X004900Y003384D01*
X004962Y003445D01*
X005086Y003445D01*
X005147Y003384D01*
X004779Y003384D02*
X004717Y003445D01*
X004594Y003445D01*
X004532Y003384D01*
X004532Y003322D01*
X004594Y003260D01*
X004042Y003075D02*
X003918Y003075D01*
X003980Y003075D02*
X003980Y003445D01*
X003918Y003445D02*
X004042Y003445D01*
X003797Y003384D02*
X003797Y003260D01*
X003735Y003198D01*
X003550Y003198D01*
X003429Y003198D02*
X003429Y003137D01*
X003367Y003075D01*
X003243Y003075D01*
X003182Y003137D01*
X003243Y003260D02*
X003182Y003322D01*
X003182Y003384D01*
X003243Y003445D01*
X003367Y003445D01*
X003429Y003384D01*
X003550Y003445D02*
X003735Y003445D01*
X003797Y003384D01*
X003550Y003445D02*
X003550Y003075D01*
X003429Y003198D02*
X003367Y003260D01*
X003243Y003260D01*
X003162Y003975D02*
X003409Y004345D01*
X003530Y004345D02*
X003715Y004345D01*
X003777Y004284D01*
X003777Y004222D01*
X003715Y004160D01*
X003530Y004160D01*
X003530Y003975D02*
X003715Y003975D01*
X003777Y004037D01*
X003777Y004098D01*
X003715Y004160D01*
X003898Y004160D02*
X004022Y004160D01*
X003898Y003975D02*
X004145Y003975D01*
X004267Y003975D02*
X004513Y003975D01*
X004390Y004160D02*
X004267Y004160D01*
X004267Y004345D02*
X004267Y003975D01*
X003898Y003975D02*
X003898Y004345D01*
X004145Y004345D01*
X004267Y004345D02*
X004513Y004345D01*
X005003Y004284D02*
X005003Y004222D01*
X005065Y004160D01*
X005188Y004160D01*
X005250Y004098D01*
X005250Y004037D01*
X005188Y003975D01*
X005065Y003975D01*
X005003Y004037D01*
X005003Y004284D02*
X005065Y004345D01*
X005188Y004345D01*
X005250Y004284D01*
X005372Y004345D02*
X005372Y003975D01*
X005618Y003975D01*
X005740Y003975D02*
X005987Y003975D01*
X006108Y003975D02*
X006355Y003975D01*
X006476Y003975D02*
X006476Y004345D01*
X006662Y004345D01*
X006723Y004284D01*
X006723Y004160D01*
X006662Y004098D01*
X006476Y004098D01*
X006232Y004160D02*
X006108Y004160D01*
X006108Y004345D02*
X006108Y003975D01*
X005863Y004160D02*
X005740Y004160D01*
X005740Y004345D02*
X005740Y003975D01*
X005740Y004345D02*
X005987Y004345D01*
X006108Y004345D02*
X006355Y004345D01*
X005516Y005035D02*
X005392Y005158D01*
X005330Y005035D02*
X005269Y005097D01*
X005269Y005344D01*
X005330Y005405D01*
X005454Y005405D01*
X005516Y005344D01*
X005516Y005097D01*
X005454Y005035D01*
X005330Y005035D01*
X005147Y005035D02*
X005024Y005158D01*
X005086Y005158D02*
X004900Y005158D01*
X004900Y005035D02*
X004900Y005405D01*
X005086Y005405D01*
X005147Y005344D01*
X005147Y005220D01*
X005086Y005158D01*
X004778Y005035D02*
X004655Y005035D01*
X004717Y005035D02*
X004717Y005405D01*
X004778Y005405D02*
X004655Y005405D01*
X004165Y005344D02*
X004103Y005405D01*
X003980Y005405D01*
X003918Y005344D01*
X003918Y005097D01*
X003980Y005035D01*
X004103Y005035D01*
X004165Y005097D01*
X003797Y005405D02*
X003550Y005405D01*
X003550Y005035D01*
X003429Y005035D02*
X003429Y005405D01*
X003550Y005220D02*
X003673Y005220D01*
X003429Y005035D02*
X003182Y005405D01*
X003182Y005035D01*
X003162Y004345D02*
X003409Y003975D01*
X003530Y003975D02*
X003530Y004345D01*
X005795Y006935D02*
X005671Y007058D01*
X006042Y007058D01*
X006042Y006935D02*
X006042Y007182D01*
X004632Y009935D02*
X004261Y010182D01*
X004261Y010303D02*
X004261Y010488D01*
X004323Y010550D01*
X004385Y010550D01*
X004447Y010488D01*
X004447Y010303D01*
X004632Y010303D02*
X004632Y010488D01*
X004570Y010550D01*
X004508Y010550D01*
X004447Y010488D01*
X004447Y010672D02*
X004447Y010795D01*
X004632Y010672D02*
X004632Y010919D01*
X004632Y011040D02*
X004632Y011287D01*
X004447Y011163D02*
X004447Y011040D01*
X004632Y011040D02*
X004261Y011040D01*
X004261Y011287D01*
X004261Y010919D02*
X004261Y010672D01*
X004632Y010672D01*
X004632Y010303D02*
X004261Y010303D01*
X004261Y009935D02*
X004632Y010182D01*
X004570Y011777D02*
X004632Y011838D01*
X004632Y011962D01*
X004570Y012023D01*
X004508Y012023D01*
X004447Y011962D01*
X004447Y011838D01*
X004385Y011777D01*
X004323Y011777D01*
X004261Y011838D01*
X004261Y011962D01*
X004323Y012023D01*
X004385Y012145D02*
X004261Y012268D01*
X004632Y012268D01*
X004632Y012145D02*
X004632Y012392D01*
X016411Y007550D02*
X016411Y007303D01*
X016411Y007427D02*
X016782Y007427D01*
X016720Y007182D02*
X016782Y007120D01*
X016782Y006997D01*
X016720Y006935D01*
X016782Y006813D02*
X016658Y006690D01*
X016658Y006752D02*
X016658Y006567D01*
X016782Y006567D02*
X016411Y006567D01*
X016411Y006752D01*
X016473Y006813D01*
X016597Y006813D01*
X016658Y006752D01*
X016535Y006935D02*
X016597Y006997D01*
X016597Y007120D01*
X016658Y007182D01*
X016720Y007182D01*
X016473Y007182D02*
X016411Y007120D01*
X016411Y006997D01*
X016473Y006935D01*
X016535Y006935D01*
X016411Y006077D02*
X016411Y005830D01*
X016782Y005830D01*
X016782Y006077D01*
X016597Y005953D02*
X016597Y005830D01*
X016782Y005709D02*
X016782Y005462D01*
X016411Y005462D01*
X016411Y005709D01*
X016597Y005585D02*
X016597Y005462D01*
X016658Y005340D02*
X016720Y005340D01*
X016782Y005278D01*
X016782Y005093D01*
X016411Y005093D01*
X016411Y005278D01*
X016473Y005340D01*
X016535Y005340D01*
X016597Y005278D01*
X016597Y005093D01*
X016597Y005278D02*
X016658Y005340D01*
X016782Y004972D02*
X016411Y004725D01*
X016411Y004972D02*
X016782Y004725D01*
X033032Y004104D02*
X033032Y004042D01*
X033093Y003980D01*
X033217Y003980D01*
X033279Y003918D01*
X033279Y003857D01*
X033217Y003795D01*
X033093Y003795D01*
X033032Y003857D01*
X033032Y004104D02*
X033093Y004165D01*
X033217Y004165D01*
X033279Y004104D01*
X033400Y004165D02*
X033400Y003795D01*
X033523Y003918D01*
X033647Y003795D01*
X033647Y004165D01*
X033768Y004165D02*
X033892Y004165D01*
X033830Y004165D02*
X033830Y003795D01*
X033768Y003795D02*
X033892Y003795D01*
X034137Y003795D02*
X034137Y004165D01*
X034014Y004165D02*
X034261Y004165D01*
X034382Y004104D02*
X034444Y004165D01*
X034567Y004165D01*
X034629Y004104D01*
X034750Y004165D02*
X034750Y003795D01*
X034629Y003857D02*
X034567Y003795D01*
X034444Y003795D01*
X034382Y003857D01*
X034382Y004104D01*
X034750Y003980D02*
X034997Y003980D01*
X034997Y004165D02*
X034997Y003795D01*
X037591Y009005D02*
X037591Y009190D01*
X037653Y009252D01*
X037777Y009252D01*
X037838Y009190D01*
X037838Y009005D01*
X037962Y009005D02*
X037591Y009005D01*
X037591Y009373D02*
X037962Y009620D01*
X037591Y009620D01*
X037591Y009742D02*
X037777Y009742D01*
X037715Y009865D01*
X037715Y009927D01*
X037777Y009989D01*
X037900Y009989D01*
X037962Y009927D01*
X037962Y009803D01*
X037900Y009742D01*
X037591Y009742D02*
X037591Y009989D01*
X037653Y010110D02*
X037591Y010172D01*
X037591Y010295D01*
X037653Y010357D01*
X037715Y010357D01*
X037777Y010295D01*
X037838Y010357D01*
X037900Y010357D01*
X037962Y010295D01*
X037962Y010172D01*
X037900Y010110D01*
X037777Y010233D02*
X037777Y010295D01*
X037653Y010478D02*
X037591Y010540D01*
X037591Y010663D01*
X037653Y010725D01*
X037715Y010725D01*
X037962Y010478D01*
X037962Y010725D01*
X037900Y011215D02*
X037962Y011277D01*
X037962Y011400D01*
X037900Y011462D01*
X037838Y011462D01*
X037777Y011400D01*
X037777Y011277D01*
X037715Y011215D01*
X037653Y011215D01*
X037591Y011277D01*
X037591Y011400D01*
X037653Y011462D01*
X037591Y011583D02*
X037591Y011768D01*
X037653Y011830D01*
X037777Y011830D01*
X037838Y011768D01*
X037838Y011583D01*
X037962Y011583D02*
X037591Y011583D01*
X037591Y011952D02*
X037591Y012075D01*
X037591Y012013D02*
X037962Y012013D01*
X037962Y011952D02*
X037962Y012075D01*
X037962Y009373D02*
X037591Y009373D01*
X034062Y014595D02*
X033691Y014595D01*
X033815Y014718D01*
X033691Y014842D01*
X034062Y014842D01*
X034062Y014963D02*
X034062Y015087D01*
X034062Y015025D02*
X033691Y015025D01*
X033691Y014963D02*
X033691Y015087D01*
X033753Y015209D02*
X033691Y015271D01*
X033691Y015394D01*
X033753Y015456D01*
X033753Y015577D02*
X034000Y015577D01*
X034062Y015639D01*
X034062Y015762D01*
X034000Y015824D01*
X033753Y015824D01*
X033691Y015762D01*
X033691Y015639D01*
X033753Y015577D01*
X033877Y015394D02*
X033938Y015456D01*
X034000Y015456D01*
X034062Y015394D01*
X034062Y015271D01*
X034000Y015209D01*
X033877Y015271D02*
X033877Y015394D01*
X033877Y015271D02*
X033815Y015209D01*
X033753Y015209D01*
X033042Y015148D02*
X032980Y015210D01*
X032733Y015210D01*
X032671Y015148D01*
X032671Y015025D01*
X032733Y014963D01*
X032980Y014963D01*
X033042Y015025D01*
X033042Y015148D01*
X032980Y015332D02*
X033042Y015393D01*
X033042Y015517D01*
X032980Y015579D01*
X032918Y015579D01*
X032857Y015517D01*
X032857Y015393D01*
X032795Y015332D01*
X032733Y015332D01*
X032671Y015393D01*
X032671Y015517D01*
X032733Y015579D01*
X032671Y015700D02*
X032671Y015823D01*
X032671Y015762D02*
X033042Y015762D01*
X033042Y015823D02*
X033042Y015700D01*
X032092Y015789D02*
X031907Y015603D01*
X031968Y015542D02*
X031721Y015789D01*
X031721Y015542D02*
X032092Y015542D01*
X032030Y015420D02*
X032092Y015358D01*
X032092Y015235D01*
X032030Y015173D01*
X031783Y015173D01*
X031721Y015235D01*
X031721Y015358D01*
X031783Y015420D01*
X031783Y015052D02*
X031721Y014990D01*
X031721Y014867D01*
X031783Y014805D01*
X031845Y014805D01*
X031907Y014867D01*
X031907Y014990D01*
X031968Y015052D01*
X032030Y015052D01*
X032092Y014990D01*
X032092Y014867D01*
X032030Y014805D01*
X032671Y014842D02*
X032795Y014718D01*
X032671Y014595D01*
X033042Y014595D01*
X033042Y014842D02*
X032671Y014842D01*
X031042Y014817D02*
X031042Y014940D01*
X030980Y015002D01*
X030857Y015002D01*
X030857Y014878D01*
X030980Y014755D02*
X030733Y014755D01*
X030671Y014817D01*
X030671Y014940D01*
X030733Y015002D01*
X030671Y015123D02*
X031042Y015370D01*
X030671Y015370D01*
X030671Y015492D02*
X030671Y015677D01*
X030733Y015739D01*
X030980Y015739D01*
X031042Y015677D01*
X031042Y015492D01*
X030671Y015492D01*
X030671Y015123D02*
X031042Y015123D01*
X031042Y014817D02*
X030980Y014755D01*
X035212Y016967D02*
X035273Y016905D01*
X035397Y016905D01*
X035459Y016967D01*
X035459Y017090D01*
X035335Y017090D01*
X035212Y016967D02*
X035212Y017214D01*
X035273Y017275D01*
X035397Y017275D01*
X035459Y017214D01*
X035580Y017275D02*
X035827Y016905D01*
X035827Y017275D01*
X035948Y017275D02*
X036133Y017275D01*
X036195Y017214D01*
X036195Y016967D01*
X036133Y016905D01*
X035948Y016905D01*
X035948Y017275D01*
X035580Y017275D02*
X035580Y016905D01*
X034383Y017625D02*
X034260Y017625D01*
X034322Y017625D02*
X034322Y017995D01*
X034383Y017995D02*
X034260Y017995D01*
X034138Y017934D02*
X034138Y017810D01*
X034077Y017748D01*
X033892Y017748D01*
X033770Y017748D02*
X033770Y017687D01*
X033708Y017625D01*
X033585Y017625D01*
X033523Y017687D01*
X033585Y017810D02*
X033708Y017810D01*
X033770Y017748D01*
X033892Y017625D02*
X033892Y017995D01*
X034077Y017995D01*
X034138Y017934D01*
X033770Y017934D02*
X033708Y017995D01*
X033585Y017995D01*
X033523Y017934D01*
X033523Y017872D01*
X033585Y017810D01*
X033033Y017687D02*
X033033Y017934D01*
X032972Y017995D01*
X032848Y017995D01*
X032787Y017934D01*
X032787Y017687D01*
X032848Y017625D01*
X032972Y017625D01*
X033033Y017687D01*
X032665Y017687D02*
X032665Y017934D01*
X032603Y017995D01*
X032480Y017995D01*
X032418Y017934D01*
X032418Y017687D01*
X032480Y017625D01*
X032603Y017625D01*
X032665Y017687D01*
X032297Y017687D02*
X032297Y017934D01*
X032235Y017995D01*
X032050Y017995D01*
X032050Y017625D01*
X032235Y017625D01*
X032297Y017687D01*
X031929Y017687D02*
X031929Y017995D01*
X031682Y017995D02*
X031682Y017687D01*
X031743Y017625D01*
X031867Y017625D01*
X031929Y017687D01*
X035272Y018007D02*
X035333Y017945D01*
X035457Y017945D01*
X035519Y018007D01*
X035519Y018068D01*
X035457Y018130D01*
X035333Y018130D01*
X035272Y018192D01*
X035272Y018254D01*
X035333Y018315D01*
X035457Y018315D01*
X035519Y018254D01*
X035640Y018315D02*
X035825Y018315D01*
X035887Y018254D01*
X035887Y018007D01*
X035825Y017945D01*
X035640Y017945D01*
X035640Y018315D01*
X036008Y018192D02*
X036132Y018315D01*
X036255Y018192D01*
X036255Y017945D01*
X036255Y018130D02*
X036008Y018130D01*
X036008Y018192D02*
X036008Y017945D01*
X037691Y018455D02*
X037691Y018578D01*
X037691Y018517D02*
X038062Y018517D01*
X038062Y018578D02*
X038062Y018455D01*
X038062Y018701D02*
X037815Y018947D01*
X037753Y018947D01*
X037691Y018886D01*
X037691Y018762D01*
X037753Y018701D01*
X038062Y018701D02*
X038062Y018947D01*
X038000Y019069D02*
X038062Y019131D01*
X038062Y019254D01*
X038000Y019316D01*
X037753Y019316D02*
X037691Y019254D01*
X037691Y019131D01*
X037753Y019069D01*
X038000Y019069D01*
X036165Y019015D02*
X035918Y019015D01*
X035918Y019385D01*
X035797Y019324D02*
X035735Y019385D01*
X035612Y019385D01*
X035550Y019324D01*
X035550Y019077D01*
X035612Y019015D01*
X035735Y019015D01*
X035797Y019077D01*
X035429Y019077D02*
X035367Y019015D01*
X035243Y019015D01*
X035182Y019077D01*
X035243Y019200D02*
X035367Y019200D01*
X035429Y019138D01*
X035429Y019077D01*
X035243Y019200D02*
X035182Y019262D01*
X035182Y019324D01*
X035243Y019385D01*
X035367Y019385D01*
X035429Y019324D01*
X035357Y019965D02*
X035233Y019965D01*
X035172Y020027D01*
X035295Y020150D02*
X035357Y020150D01*
X035419Y020088D01*
X035419Y020027D01*
X035357Y019965D01*
X035540Y019965D02*
X035602Y019965D01*
X035602Y020027D01*
X035540Y020027D01*
X035540Y019965D01*
X035724Y020027D02*
X035786Y019965D01*
X035909Y019965D01*
X035971Y020027D01*
X035971Y020088D01*
X035909Y020150D01*
X035848Y020150D01*
X035909Y020150D02*
X035971Y020212D01*
X035971Y020274D01*
X035909Y020335D01*
X035786Y020335D01*
X035724Y020274D01*
X035419Y020274D02*
X035419Y020212D01*
X035357Y020150D01*
X035419Y020274D02*
X035357Y020335D01*
X035233Y020335D01*
X035172Y020274D01*
X036092Y020335D02*
X036092Y020088D01*
X036216Y019965D01*
X036339Y020088D01*
X036339Y020335D01*
D12*
X038703Y014546D02*
X038626Y014469D01*
X038626Y014239D01*
X039087Y014239D01*
X039087Y014469D01*
X039010Y014546D01*
X038703Y014546D01*
X039087Y014085D02*
X039087Y013778D01*
X038626Y013778D01*
X038626Y013625D02*
X038626Y013318D01*
X039087Y013318D01*
X039087Y013625D01*
X038856Y013471D02*
X038856Y013318D01*
X038626Y013164D02*
X038626Y013011D01*
X038626Y013088D02*
X039087Y013088D01*
X039087Y013164D02*
X039087Y013011D01*
X039087Y012857D02*
X038626Y012857D01*
X038856Y012857D02*
X038856Y012551D01*
X038933Y012397D02*
X039010Y012397D01*
X039087Y012320D01*
X039087Y012167D01*
X039010Y012090D01*
X038856Y012167D02*
X038856Y012320D01*
X038933Y012397D01*
X039087Y012551D02*
X038626Y012551D01*
X038703Y012397D02*
X038626Y012320D01*
X038626Y012167D01*
X038703Y012090D01*
X038780Y012090D01*
X038856Y012167D01*
X039163Y011937D02*
X039163Y011630D01*
X039270Y011882D02*
X039346Y011882D01*
X039500Y011882D02*
X039807Y011882D01*
X039807Y011806D02*
X039807Y011959D01*
X039807Y012113D02*
X039500Y012113D01*
X039500Y012343D01*
X039576Y012420D01*
X039807Y012420D01*
X039807Y012573D02*
X039807Y012727D01*
X039807Y012650D02*
X039500Y012650D01*
X039500Y012573D01*
X039346Y012650D02*
X039270Y012650D01*
X039500Y011882D02*
X039500Y011806D01*
X039576Y011652D02*
X039807Y011652D01*
X039807Y011499D02*
X039576Y011499D01*
X039500Y011576D01*
X039576Y011652D01*
X039576Y011499D02*
X039500Y011422D01*
X039500Y011345D01*
X039807Y011345D01*
X039500Y011192D02*
X039500Y011115D01*
X039653Y010962D01*
X039500Y010962D02*
X039807Y010962D01*
X039807Y010808D02*
X039807Y010501D01*
X039346Y010501D01*
X039346Y010808D01*
X039087Y010862D02*
X038626Y010862D01*
X038626Y010709D02*
X038626Y011016D01*
X038626Y011169D02*
X038703Y011169D01*
X038856Y011323D01*
X039087Y011323D01*
X038856Y011323D02*
X038703Y011476D01*
X038626Y011476D01*
X039576Y010655D02*
X039576Y010501D01*
X039087Y010479D02*
X038626Y010479D01*
X038626Y010555D02*
X038626Y010402D01*
X038626Y010249D02*
X038933Y010249D01*
X039087Y010095D01*
X038933Y009942D01*
X038626Y009942D01*
X038626Y009788D02*
X038626Y009635D01*
X038626Y009711D02*
X039087Y009711D01*
X039087Y009635D02*
X039087Y009788D01*
X039500Y009811D02*
X039500Y009657D01*
X039576Y009580D01*
X039730Y009580D01*
X039807Y009657D01*
X039807Y009811D01*
X039730Y009887D01*
X039576Y009887D01*
X039500Y009811D01*
X039500Y009427D02*
X039500Y009197D01*
X039576Y009120D01*
X039730Y009120D01*
X039807Y009197D01*
X039807Y009427D01*
X039730Y008967D02*
X039653Y008890D01*
X039653Y008736D01*
X039576Y008660D01*
X039500Y008736D01*
X039500Y008967D01*
X039730Y008967D02*
X039807Y008890D01*
X039807Y008660D01*
X039653Y008506D02*
X039653Y008199D01*
X039576Y008199D02*
X039500Y008276D01*
X039500Y008430D01*
X039576Y008506D01*
X039653Y008506D01*
X039807Y008430D02*
X039807Y008276D01*
X039730Y008199D01*
X039576Y008199D01*
X039500Y008046D02*
X039500Y007816D01*
X039576Y007739D01*
X039730Y007739D01*
X039807Y007816D01*
X039807Y008046D01*
X039087Y008100D02*
X038626Y008100D01*
X038626Y008254D02*
X039087Y008254D01*
X039087Y008560D01*
X039010Y008714D02*
X038703Y008714D01*
X038626Y008791D01*
X038626Y008944D01*
X038703Y009021D01*
X038626Y009174D02*
X038626Y009481D01*
X038626Y009328D02*
X039087Y009328D01*
X039010Y009021D02*
X039087Y008944D01*
X039087Y008791D01*
X039010Y008714D01*
X038626Y008560D02*
X038626Y008254D01*
X038856Y008254D02*
X038856Y008407D01*
X039087Y008100D02*
X038626Y007793D01*
X039087Y007793D01*
X039087Y007640D02*
X038626Y007640D01*
X038626Y007333D02*
X039087Y007640D01*
X039500Y007509D02*
X039576Y007585D01*
X039807Y007585D01*
X039807Y007279D02*
X039500Y007279D01*
X039500Y007509D01*
X039087Y007333D02*
X038626Y007333D01*
X038703Y007179D02*
X038626Y007103D01*
X038626Y006949D01*
X038703Y006872D01*
X039010Y006872D01*
X039087Y006949D01*
X039087Y007103D01*
X039010Y007179D01*
X038703Y007179D01*
X039500Y007048D02*
X039500Y006895D01*
X039653Y006895D02*
X039653Y007125D01*
X039576Y007125D02*
X039807Y007125D01*
X039807Y006895D01*
X039730Y006818D01*
X039653Y006895D01*
X039500Y007048D02*
X039576Y007125D01*
X039500Y006665D02*
X039500Y006588D01*
X039653Y006434D01*
X039500Y006434D02*
X039807Y006434D01*
X039576Y006128D02*
X039576Y005974D01*
X039346Y005974D02*
X039346Y006281D01*
X039163Y006258D02*
X039163Y005952D01*
X039346Y005974D02*
X039807Y005974D01*
X039087Y005721D02*
X039087Y005568D01*
X039010Y005491D01*
X038703Y005491D01*
X038626Y005568D01*
X038626Y005721D01*
X038703Y005798D01*
X039010Y005798D01*
X039087Y005721D01*
X039010Y005338D02*
X038703Y005338D01*
X038626Y005261D01*
X038626Y005108D01*
X038703Y005031D01*
X039010Y005031D01*
X039087Y005108D01*
X039087Y005261D01*
X039010Y005338D01*
X039010Y004877D02*
X038703Y004877D01*
X038626Y004801D01*
X038626Y004570D01*
X039087Y004570D01*
X039087Y004801D01*
X039010Y004877D01*
X039500Y004900D02*
X039883Y004900D01*
X039960Y004823D01*
X039960Y004746D01*
X039807Y004670D02*
X039807Y004900D01*
X039807Y004670D02*
X039730Y004593D01*
X039500Y004593D01*
X039576Y004439D02*
X039500Y004363D01*
X039500Y004133D01*
X039346Y004133D02*
X039807Y004133D01*
X039807Y004363D01*
X039730Y004439D01*
X039576Y004439D01*
X039087Y004340D02*
X039087Y004187D01*
X039010Y004110D01*
X038626Y004110D01*
X038626Y004417D02*
X039010Y004417D01*
X039087Y004340D01*
X039576Y003058D02*
X039653Y003058D01*
X039653Y002751D01*
X039576Y002751D02*
X039500Y002828D01*
X039500Y002982D01*
X039576Y003058D01*
X039807Y002982D02*
X039807Y002828D01*
X039730Y002751D01*
X039576Y002751D01*
X039500Y002598D02*
X039500Y002368D01*
X039576Y002291D01*
X039730Y002291D01*
X039807Y002368D01*
X039807Y002598D01*
X039346Y002598D01*
X039576Y002137D02*
X039807Y002137D01*
X039807Y001907D01*
X039730Y001831D01*
X039653Y001907D01*
X039653Y002137D01*
X039576Y002137D02*
X039500Y002061D01*
X039500Y001907D01*
X039346Y001677D02*
X039807Y001677D01*
X039807Y001370D02*
X039346Y001370D01*
X039500Y001524D01*
X039346Y001677D01*
X039010Y006412D02*
X038703Y006412D01*
X038626Y006489D01*
X038626Y006642D01*
X038703Y006719D01*
X039010Y006719D02*
X039087Y006642D01*
X039087Y006489D01*
X039010Y006412D01*
X036275Y006963D02*
X036275Y007270D01*
X036275Y006963D02*
X036121Y006810D01*
X035968Y006963D01*
X035968Y007270D01*
X035814Y007194D02*
X035814Y007117D01*
X035737Y007040D01*
X035814Y006963D01*
X035814Y006887D01*
X035737Y006810D01*
X035584Y006810D01*
X035507Y006887D01*
X035354Y006887D02*
X035354Y006810D01*
X035277Y006810D01*
X035277Y006887D01*
X035354Y006887D01*
X035124Y006887D02*
X035047Y006810D01*
X034893Y006810D01*
X034817Y006887D01*
X034970Y007040D02*
X035047Y007040D01*
X035124Y006963D01*
X035124Y006887D01*
X035047Y007040D02*
X035124Y007117D01*
X035124Y007194D01*
X035047Y007270D01*
X034893Y007270D01*
X034817Y007194D01*
X034853Y007740D02*
X034777Y007817D01*
X034853Y007740D02*
X035007Y007740D01*
X035084Y007817D01*
X035084Y007893D01*
X035007Y007970D01*
X034853Y007970D01*
X034777Y008047D01*
X034777Y008124D01*
X034853Y008200D01*
X035007Y008200D01*
X035084Y008124D01*
X035237Y008124D02*
X035237Y007817D01*
X035314Y007740D01*
X035467Y007740D01*
X035544Y007817D01*
X035697Y007893D02*
X036004Y008200D01*
X035697Y008200D02*
X035697Y007740D01*
X035774Y007970D02*
X036004Y007740D01*
X035737Y007270D02*
X035814Y007194D01*
X035737Y007270D02*
X035584Y007270D01*
X035507Y007194D01*
X035661Y007040D02*
X035737Y007040D01*
X035544Y008124D02*
X035467Y008200D01*
X035314Y008200D01*
X035237Y008124D01*
X035321Y008780D02*
X035244Y008857D01*
X035321Y008780D02*
X035474Y008780D01*
X035551Y008857D01*
X035551Y008933D01*
X035474Y009010D01*
X035321Y009010D01*
X035244Y009087D01*
X035244Y009164D01*
X035321Y009240D01*
X035474Y009240D01*
X035551Y009164D01*
X035704Y009164D02*
X035704Y008857D01*
X035781Y008780D01*
X035935Y008780D01*
X036011Y008857D01*
X036011Y009164D01*
X035935Y009240D01*
X035781Y009240D01*
X035704Y009164D01*
X035091Y009240D02*
X034937Y009240D01*
X035014Y009240D02*
X035014Y008780D01*
X034937Y008780D02*
X035091Y008780D01*
X034784Y008780D02*
X034784Y009240D01*
X034630Y009087D01*
X034477Y009240D01*
X034477Y008780D01*
X034507Y009760D02*
X034507Y010220D01*
X034660Y010067D01*
X034814Y010220D01*
X034814Y009760D01*
X034967Y009837D02*
X034967Y010144D01*
X035044Y010220D01*
X035197Y010220D01*
X035274Y010144D01*
X035274Y009837D01*
X035197Y009760D01*
X035044Y009760D01*
X034967Y009837D01*
X035427Y009837D02*
X035504Y009760D01*
X035658Y009760D01*
X035734Y009837D01*
X035734Y009913D01*
X035658Y009990D01*
X035504Y009990D01*
X035427Y010067D01*
X035427Y010144D01*
X035504Y010220D01*
X035658Y010220D01*
X035734Y010144D01*
X035888Y010220D02*
X036041Y010220D01*
X035965Y010220D02*
X035965Y009760D01*
X036041Y009760D02*
X035888Y009760D01*
X035854Y010720D02*
X035777Y010797D01*
X035854Y010720D02*
X036007Y010720D01*
X036084Y010797D01*
X036084Y010873D01*
X036007Y010950D01*
X035854Y010950D01*
X035777Y011027D01*
X035777Y011104D01*
X035854Y011180D01*
X036007Y011180D01*
X036084Y011104D01*
X035624Y011104D02*
X035547Y011180D01*
X035393Y011180D01*
X035317Y011104D01*
X035317Y011027D01*
X035393Y010950D01*
X035547Y010950D01*
X035624Y010873D01*
X035624Y010797D01*
X035547Y010720D01*
X035393Y010720D01*
X035317Y010797D01*
X039087Y010555D02*
X039087Y010402D01*
D13*
X034807Y005410D02*
X034307Y005410D01*
X034057Y005160D01*
X034057Y004660D01*
X034307Y004410D01*
X034807Y004410D01*
X035057Y004660D01*
X035057Y005160D01*
X034807Y005410D01*
X034057Y005160D02*
X033807Y005410D01*
X033307Y005410D01*
X033057Y005160D01*
X033057Y004660D01*
X033307Y004410D01*
X033807Y004410D01*
X034057Y004660D01*
X036960Y002935D02*
X037004Y002907D01*
X037046Y002876D01*
X037085Y002841D01*
X037122Y002804D01*
X037156Y002765D01*
X037186Y002723D01*
X037214Y002679D01*
X037238Y002633D01*
X037259Y002585D01*
X037276Y002535D01*
X037290Y002485D01*
X037299Y002434D01*
X037305Y002382D01*
X037307Y002330D01*
X035557Y002330D02*
X035559Y002395D01*
X035565Y002459D01*
X035575Y002523D01*
X035589Y002586D01*
X035606Y002648D01*
X035628Y002709D01*
X035653Y002769D01*
X035682Y002827D01*
X035714Y002883D01*
X035750Y002937D01*
X035789Y002988D01*
X035831Y003037D01*
X035876Y003084D01*
X035924Y003127D01*
X035974Y003168D01*
X036027Y003205D01*
X036082Y003239D01*
X036139Y003270D01*
X036198Y003297D01*
X036258Y003320D01*
X036320Y003340D01*
X036382Y003356D01*
X036446Y003368D01*
X036510Y003376D01*
X036575Y003380D01*
X036639Y003380D01*
X036704Y003376D01*
X036768Y003368D01*
X036832Y003356D01*
X036894Y003340D01*
X036956Y003320D01*
X037016Y003297D01*
X037075Y003270D01*
X037132Y003239D01*
X037187Y003205D01*
X037240Y003168D01*
X037290Y003127D01*
X037338Y003084D01*
X037383Y003037D01*
X037425Y002988D01*
X037464Y002937D01*
X037500Y002883D01*
X037532Y002827D01*
X037561Y002769D01*
X037586Y002709D01*
X037608Y002648D01*
X037625Y002586D01*
X037639Y002523D01*
X037649Y002459D01*
X037655Y002395D01*
X037657Y002330D01*
X037655Y002265D01*
X037649Y002201D01*
X037639Y002137D01*
X037625Y002074D01*
X037608Y002012D01*
X037586Y001951D01*
X037561Y001891D01*
X037532Y001833D01*
X037500Y001777D01*
X037464Y001723D01*
X037425Y001672D01*
X037383Y001623D01*
X037338Y001576D01*
X037290Y001533D01*
X037240Y001492D01*
X037187Y001455D01*
X037132Y001421D01*
X037075Y001390D01*
X037016Y001363D01*
X036956Y001340D01*
X036894Y001320D01*
X036832Y001304D01*
X036768Y001292D01*
X036704Y001284D01*
X036639Y001280D01*
X036575Y001280D01*
X036510Y001284D01*
X036446Y001292D01*
X036382Y001304D01*
X036320Y001320D01*
X036258Y001340D01*
X036198Y001363D01*
X036139Y001390D01*
X036082Y001421D01*
X036027Y001455D01*
X035974Y001492D01*
X035924Y001533D01*
X035876Y001576D01*
X035831Y001623D01*
X035789Y001672D01*
X035750Y001723D01*
X035714Y001777D01*
X035682Y001833D01*
X035653Y001891D01*
X035628Y001951D01*
X035606Y002012D01*
X035589Y002074D01*
X035575Y002137D01*
X035565Y002201D01*
X035559Y002265D01*
X035557Y002330D01*
X035757Y001730D02*
X035507Y001480D01*
X035757Y001230D01*
X036007Y001480D01*
X036960Y001725D02*
X037004Y001753D01*
X037046Y001784D01*
X037085Y001819D01*
X037122Y001856D01*
X037156Y001895D01*
X037186Y001937D01*
X037214Y001981D01*
X037238Y002027D01*
X037259Y002075D01*
X037276Y002125D01*
X037290Y002175D01*
X037299Y002226D01*
X037305Y002278D01*
X037307Y002330D01*
X036254Y001725D02*
X036210Y001753D01*
X036168Y001784D01*
X036129Y001819D01*
X036092Y001856D01*
X036058Y001895D01*
X036028Y001937D01*
X036000Y001981D01*
X035976Y002027D01*
X035955Y002075D01*
X035938Y002125D01*
X035924Y002175D01*
X035915Y002226D01*
X035909Y002278D01*
X035907Y002330D01*
X035909Y002382D01*
X035915Y002434D01*
X035924Y002485D01*
X035938Y002535D01*
X035955Y002585D01*
X035976Y002633D01*
X036000Y002679D01*
X036028Y002723D01*
X036058Y002765D01*
X036092Y002804D01*
X036129Y002841D01*
X036168Y002876D01*
X036210Y002907D01*
X036254Y002935D01*
X022017Y003190D02*
X021767Y002940D01*
X021267Y002940D01*
X021017Y003190D01*
X020767Y002940D01*
X020267Y002940D01*
X020017Y003190D01*
X019767Y002940D01*
X019267Y002940D01*
X019017Y003190D01*
X018767Y002940D01*
X018267Y002940D01*
X018017Y003190D01*
X018017Y003690D01*
X018267Y003940D01*
X018767Y003940D01*
X019017Y003690D01*
X019267Y003940D01*
X019767Y003940D01*
X020017Y003690D01*
X020017Y003190D01*
X019017Y003190D02*
X019017Y003690D01*
X019216Y004070D02*
X019430Y004284D01*
X019216Y004497D01*
X019857Y004497D01*
X019857Y004715D02*
X019857Y004928D01*
X019857Y004821D02*
X019216Y004821D01*
X019216Y004715D02*
X019216Y004928D01*
X019323Y005144D02*
X019430Y005144D01*
X019536Y005251D01*
X019536Y005465D01*
X019643Y005571D01*
X019750Y005571D01*
X019857Y005465D01*
X019857Y005251D01*
X019750Y005144D01*
X019323Y005144D02*
X019216Y005251D01*
X019216Y005465D01*
X019323Y005571D01*
X019323Y005789D02*
X019750Y005789D01*
X019857Y005896D01*
X019857Y006109D01*
X019750Y006216D01*
X019323Y006216D01*
X019216Y006109D01*
X019216Y005896D01*
X019323Y005789D01*
X018857Y005846D02*
X018536Y005526D01*
X018643Y005419D02*
X018216Y005846D01*
X018216Y005419D02*
X018857Y005419D01*
X018857Y005202D02*
X018857Y004775D01*
X018216Y004775D01*
X018323Y004557D02*
X018216Y004450D01*
X018216Y004237D01*
X018323Y004130D01*
X018750Y004130D01*
X018857Y004237D01*
X018857Y004450D01*
X018750Y004557D01*
X019216Y004070D02*
X019857Y004070D01*
X020236Y004217D02*
X020343Y004110D01*
X020450Y004110D01*
X020556Y004217D01*
X020556Y004430D01*
X020663Y004537D01*
X020770Y004537D01*
X020877Y004430D01*
X020877Y004217D01*
X020770Y004110D01*
X020767Y003940D02*
X021017Y003690D01*
X021267Y003940D01*
X021767Y003940D01*
X022017Y003690D01*
X022017Y003190D01*
X021017Y003190D02*
X021017Y003690D01*
X020767Y003940D02*
X020267Y003940D01*
X020017Y003690D01*
X020236Y004217D02*
X020236Y004430D01*
X020343Y004537D01*
X020343Y004755D02*
X020450Y004755D01*
X020556Y004861D01*
X020556Y005075D01*
X020663Y005182D01*
X020770Y005182D01*
X020877Y005075D01*
X020877Y004861D01*
X020770Y004755D01*
X020343Y004755D02*
X020236Y004861D01*
X020236Y005075D01*
X020343Y005182D01*
X021196Y005085D02*
X021196Y004871D01*
X021303Y004765D01*
X021730Y004765D01*
X021837Y004871D01*
X021837Y005085D01*
X021730Y005192D01*
X021303Y005192D01*
X021196Y005085D01*
X021303Y005409D02*
X021410Y005409D01*
X021516Y005516D01*
X021516Y005729D01*
X021623Y005836D01*
X021730Y005836D01*
X021837Y005729D01*
X021837Y005516D01*
X021730Y005409D01*
X021303Y005409D02*
X021196Y005516D01*
X021196Y005729D01*
X021303Y005836D01*
X021196Y006054D02*
X021196Y006267D01*
X021196Y006160D02*
X021837Y006160D01*
X021837Y006054D02*
X021837Y006267D01*
X021837Y004547D02*
X021196Y004547D01*
X021410Y004334D01*
X021196Y004120D01*
X021837Y004120D01*
X016057Y005360D02*
X015807Y005110D01*
X015307Y005110D01*
X015057Y005360D01*
X015057Y005860D01*
X015307Y006110D01*
X015057Y006360D01*
X015057Y006860D01*
X015307Y007110D01*
X015807Y007110D01*
X016057Y006860D01*
X016057Y006360D01*
X015807Y006110D01*
X016057Y005860D01*
X016057Y005360D01*
X015807Y006110D02*
X015307Y006110D01*
X023297Y018290D02*
X023797Y018290D01*
X024047Y018540D01*
X024297Y018290D01*
X024797Y018290D01*
X025047Y018540D01*
X025297Y018290D01*
X025797Y018290D01*
X026047Y018540D01*
X026047Y019040D01*
X025797Y019290D01*
X025297Y019290D01*
X025047Y019040D01*
X025047Y018540D01*
X025047Y019040D02*
X024797Y019290D01*
X024297Y019290D01*
X024047Y019040D01*
X024047Y018540D01*
X024047Y019040D02*
X023797Y019290D01*
X023297Y019290D01*
X023047Y019040D01*
X023047Y018540D01*
X023297Y018290D01*
D14*
X035657Y002330D02*
X035659Y002391D01*
X035665Y002453D01*
X035675Y002513D01*
X035689Y002573D01*
X035706Y002632D01*
X035728Y002690D01*
X035753Y002746D01*
X035782Y002801D01*
X035814Y002853D01*
X035849Y002903D01*
X035888Y002951D01*
X035930Y002996D01*
X035974Y003039D01*
X036022Y003078D01*
X036071Y003115D01*
X036123Y003148D01*
X036177Y003177D01*
X036233Y003203D01*
X036290Y003226D01*
X036349Y003244D01*
X036408Y003259D01*
X036469Y003270D01*
X036530Y003277D01*
X036592Y003280D01*
X036653Y003279D01*
X036714Y003274D01*
X036775Y003265D01*
X036835Y003252D01*
X036895Y003235D01*
X036953Y003215D01*
X037009Y003191D01*
X037064Y003163D01*
X037117Y003131D01*
X037168Y003097D01*
X037216Y003059D01*
X037262Y003018D01*
X037305Y002974D01*
X037346Y002927D01*
X037383Y002878D01*
X037417Y002827D01*
X037447Y002774D01*
X037474Y002718D01*
X037497Y002661D01*
X037517Y002603D01*
X037533Y002544D01*
X037545Y002483D01*
X037553Y002422D01*
X037557Y002361D01*
X037557Y002299D01*
X037553Y002238D01*
X037545Y002177D01*
X037533Y002116D01*
X037517Y002057D01*
X037497Y001999D01*
X037474Y001942D01*
X037447Y001886D01*
X037417Y001833D01*
X037383Y001782D01*
X037346Y001733D01*
X037305Y001686D01*
X037262Y001642D01*
X037216Y001601D01*
X037168Y001563D01*
X037117Y001529D01*
X037064Y001497D01*
X037009Y001469D01*
X036953Y001445D01*
X036895Y001425D01*
X036835Y001408D01*
X036775Y001395D01*
X036714Y001386D01*
X036653Y001381D01*
X036592Y001380D01*
X036530Y001383D01*
X036469Y001390D01*
X036408Y001401D01*
X036349Y001416D01*
X036290Y001434D01*
X036233Y001457D01*
X036177Y001483D01*
X036123Y001512D01*
X036071Y001545D01*
X036022Y001582D01*
X035974Y001621D01*
X035930Y001664D01*
X035888Y001709D01*
X035849Y001757D01*
X035814Y001807D01*
X035782Y001859D01*
X035753Y001914D01*
X035728Y001970D01*
X035706Y002028D01*
X035689Y002087D01*
X035675Y002147D01*
X035665Y002207D01*
X035659Y002269D01*
X035657Y002330D01*
D15*
X038083Y002965D02*
X038353Y002965D01*
X038353Y002875D02*
X038353Y003055D01*
X038353Y003170D02*
X038083Y003170D01*
X038173Y003305D02*
X038263Y003170D01*
X038353Y003305D01*
X038083Y002965D02*
X038173Y002875D01*
X036897Y003999D02*
X036852Y003954D01*
X036762Y003954D01*
X036717Y003999D01*
X036897Y004179D01*
X036897Y003999D01*
X036717Y003999D02*
X036717Y004179D01*
X036762Y004224D01*
X036852Y004224D01*
X036897Y004179D01*
X036603Y004179D02*
X036423Y003999D01*
X036468Y003954D01*
X036558Y003954D01*
X036603Y003999D01*
X036603Y004179D01*
X036558Y004224D01*
X036468Y004224D01*
X036423Y004179D01*
X036423Y003999D01*
X036308Y003954D02*
X036128Y003954D01*
X036218Y003954D02*
X036218Y004224D01*
X036128Y004134D01*
M02*
